<svg width="25" height="18" viewBox="0 0 25 18" fill="none" xmlns="http://www.w3.org/2000/svg">
<path d="M22.0777 3.19317V2.85117C22.0777 1.27905 20.7987 0 19.2265 0H2.85117C1.279 4.88282e-05 0 1.27905 0 2.85117V3.19317H22.0777Z" fill="#888EA2"/>
<path d="M13.0434 12.3646C13.0434 10.8856 13.519 9.47991 14.3972 8.32141H0V12.2986C0 13.8707 1.279 15.1497 2.85117 15.1497H13.6453C13.2513 14.2866 13.0434 13.3417 13.0434 12.3646ZM11.0389 11.5004H8.57812V10.0356H11.0389V11.5004ZM3.28408 10.0356H7.11328V11.5004H3.28408V10.0356Z" fill="#888EA2"/>
<path d="M15.918 6.85666C17.0351 6.07507 18.3622 5.65398 19.7541 5.65398C20.5598 5.65398 21.3436 5.79543 22.0777 6.0658V4.65808H0V6.85666H15.918Z" fill="#888EA2"/>
<path d="M24.9996 12.3646C24.9996 9.46741 22.6509 7.11877 19.7537 7.11877C16.8565 7.11877 14.5078 9.46741 14.5078 12.3646C14.5078 15.2618 16.8564 17.6105 19.7537 17.6105C22.6509 17.6105 24.9996 15.2618 24.9996 12.3646ZM20.4608 15.1671V15.7633H19.7284V15.7633V15.7633H18.996V15.1715C18.5532 15.0216 18.1909 14.7577 17.8371 14.499L18.7018 13.3166C19.1771 13.6643 19.4204 13.8314 19.7537 13.8314C19.9422 13.8314 20.0948 13.7417 20.152 13.5973C20.2212 13.4225 20.1234 13.2615 19.8901 13.1665C19.8901 13.1665 18.8432 12.8173 18.3591 12.3238C17.953 11.9098 17.8238 11.3263 17.9531 10.7713C18.0833 10.2125 18.4606 9.77551 18.996 9.5573V8.96589H20.4608V9.53279C20.8329 9.63611 21.1478 9.7888 21.3288 9.88709L20.6299 11.1744C20.1666 10.9229 19.7403 10.8474 19.5744 10.9042C19.4134 10.9592 19.3889 11.0641 19.3797 11.1037C19.3666 11.1597 19.3597 11.2456 19.4492 11.3454C19.5354 11.4415 20.4424 11.8098 20.4424 11.8098C21.421 12.2082 21.8815 13.2086 21.5138 14.1369C21.3227 14.6194 20.9381 14.9847 20.4608 15.1671Z" fill="#888EA2"/>
</svg>
