<svg width="21" height="25" viewBox="0 0 21 25" fill="none" xmlns="http://www.w3.org/2000/svg">
<path d="M8.69536 7.35796C8.69535 7.35795 8.69534 7.35795 8.69533 7.35795C7.88155 7.05816 7.17931 6.81199 6.56966 6.8105C6.56779 6.81049 6.56593 6.81049 6.56407 6.81049C6.56683 6.81049 6.5665 6.8105 6.56325 6.8106C6.56161 6.81065 6.55924 6.81073 6.55615 6.81083C6.42859 6.81523 5.07397 6.8759 3.73131 7.70982L8.69536 7.35796ZM8.69536 7.35796L8.70889 7.36294C8.90597 7.43556 9.12185 7.5151 9.32908 7.58452L10.4545 7.96153L11.1104 8.18125C10.8786 8.2479 10.6597 8.28941 10.4545 8.28941C9.87371 8.28941 9.18432 8.03413 8.49709 7.77966C7.81617 7.52752 7.13737 7.27616 6.56847 7.27471C6.51331 7.27617 5.2087 7.32156 3.93337 8.13127C2.2954 9.17184 1.46421 10.9811 1.46421 13.5093C1.46421 15.2952 2.18217 17.8346 3.29351 19.9787L8.69536 7.35796ZM10.7695 6.49281L11.1972 7.0988C11.3378 7.04701 11.4861 6.98835 11.6522 6.92266C11.7314 6.89132 11.8147 6.85838 11.9031 6.82383C12.3162 6.66234 12.8095 6.47777 13.359 6.35587L13.5918 6.8548C13.895 6.79383 14.2047 6.75725 14.5226 6.7568L10.7695 6.49281ZM10.7695 6.49281L11.1255 6.42947C11.7972 6.30998 12.4397 6.01762 13.0024 5.59172M8.53104 6.46798C8.54541 6.56567 8.56786 6.65998 8.59733 6.75034C8.00428 6.532 7.25674 6.27647 6.57103 6.27471L6.56407 6.27469L6.55648 6.27467L6.54193 6.27506C6.41826 6.27834 4.93215 6.33328 3.44885 7.25472L8.53104 6.46798ZM11.7925 7.94214C11.8734 7.91065 11.9554 7.87818 12.0387 7.84523C12.7802 7.55178 13.6161 7.22102 14.5274 7.22102H14.5543L11.7925 7.94214Z" fill="#314CA3" stroke="#314CA3" stroke-width="2"/>
</svg>
