<svg width="21" height="25" viewBox="0 0 21 25" fill="none" xmlns="http://www.w3.org/2000/svg">
<path d="M19.7962 17.2021C19.0148 16.733 17.3895 15.7564 17.3895 13.216C17.3895 11.0719 18.8244 9.98985 19.5951 9.40856L19.6112 9.39635C19.9206 9.16306 19.9943 8.72867 19.7796 8.40606C18.0577 5.82074 15.1004 5.74607 14.5255 5.7568H14.5221C14.1277 5.75729 13.7514 5.80268 13.3946 5.87443C13.5264 5.76901 13.6543 5.65675 13.7773 5.53766C15.0092 4.34579 15.6861 2.58727 15.6339 0.711608C15.6227 0.315782 15.2986 0 14.9023 0C13.5699 0 12.0549 0.796045 10.9484 2.07772C9.83366 3.36916 9.31289 4.91634 9.52032 6.32199C9.53741 6.43864 9.58231 6.54504 9.64673 6.63631C9.4515 6.57091 9.24505 6.49477 9.04104 6.41961C8.26598 6.13408 7.38696 5.81049 6.56407 5.81049C6.54748 5.81049 4.87437 5.82269 3.2037 6.86033C1.74242 7.76863 0 9.65894 0 13.5093C0 15.5119 0.782379 18.3154 1.99328 20.6523C2.82984 22.2668 4.56591 24.9766 6.79542 24.9893H6.81934C8.4451 24.9893 9.79218 24.0292 10.7083 24.0292C12.273 24.0292 12.8299 25 14.5221 25C16.039 25 17.5091 23.8477 18.8918 21.5757C19.3994 20.7411 19.7942 19.9158 20.0358 19.3701C20.4971 18.3305 20.4971 18.1919 20.4971 18.0904C20.4971 17.6233 20.1408 17.409 19.7962 17.2021ZM12.0568 3.03434C12.6576 2.33835 13.4146 1.82197 14.1316 1.59404C13.9945 2.73076 13.5142 3.75522 12.7592 4.48538C12.2301 4.99736 11.5951 5.33023 10.9504 5.44493C11.0187 4.64058 11.4033 3.79134 12.0568 3.03434ZM17.5701 20.9295C16.5251 22.6104 15.4426 23.5358 14.5221 23.5358C13.2555 23.5358 12.6635 22.565 10.7083 22.565C9.38903 22.565 8.13029 23.5319 6.80372 23.525C5.769 23.5192 4.42388 22.1604 3.29351 19.9787C2.18217 17.8346 1.46421 15.2952 1.46421 13.5093C1.46421 10.9811 2.2954 9.17184 3.93337 8.13127C5.2087 7.32156 6.51331 7.27617 6.56847 7.27471C7.71153 7.27764 9.29825 8.28941 10.4545 8.28941C11.4955 8.28941 12.8895 7.22102 14.5274 7.22102H14.5543C14.9516 7.21321 16.8272 7.25762 18.145 8.68767C17.2138 9.472 15.9253 10.8825 15.9253 13.216C15.9253 16.3855 17.9298 17.777 18.8767 18.3573C18.6409 18.9284 18.1914 19.9304 17.5701 20.9295Z" fill="#314CA3"/>
</svg>
