<svg width="25" height="25" viewBox="0 0 25 25" fill="none" xmlns="http://www.w3.org/2000/svg">
<path d="M12.5 9.83702C13.004 9.83702 13.4156 10.2476 13.4156 10.7516C13.4156 11.2116 13.7895 11.5843 14.2494 11.5843C14.7083 11.5843 15.0821 11.2116 15.0821 10.7516C15.0821 9.62176 14.346 8.6683 13.3327 8.31968V7.84715C13.3327 7.38827 12.9599 7.01339 12.5 7.01339C12.039 7.01339 11.6662 7.38827 11.6662 7.84715V8.31968C10.6529 8.6683 9.91893 9.62176 9.91893 10.7516C9.91893 12.1766 11.0761 13.3337 12.5 13.3337C13.004 13.3337 13.4156 13.7454 13.4156 14.2494C13.4156 14.7545 13.004 15.1651 12.5 15.1651C11.996 15.1651 11.5854 14.7545 11.5854 14.2494C11.5854 13.7895 11.2116 13.4156 10.7516 13.4156C10.2907 13.4156 9.91893 13.7895 9.91893 14.2494C9.91893 15.3793 10.6529 16.3317 11.6662 16.6803V17.1528C11.6662 17.6138 12.039 17.9876 12.5 17.9876C12.9599 17.9876 13.3327 17.6138 13.3327 17.1528V16.6803C14.346 16.3317 15.0821 15.3793 15.0821 14.2494C15.0821 12.8255 13.9239 11.6673 12.5 11.6673C11.996 11.6673 11.5854 11.2567 11.5854 10.7516C11.5854 10.2476 11.996 9.83702 12.5 9.83702ZM19.4819 17.1276C19.8904 17.3429 20.3933 17.1864 20.6076 16.7811C21.3006 15.4717 21.666 13.9911 21.666 12.5C21.666 7.44707 17.5529 3.33501 12.5 3.33501C7.44602 3.33501 3.33396 7.44707 3.33396 12.5C3.33396 17.554 7.44602 21.666 12.5 21.666C13.969 21.666 15.4286 21.3111 16.7213 20.638C17.1297 20.4269 17.2883 19.9219 17.0762 19.5144C16.8641 19.1081 16.3611 18.9463 15.9516 19.1595C14.8815 19.7181 13.7191 20.0006 12.5 20.0006C8.36483 20.0006 4.99937 16.6362 4.99937 12.5C4.99937 8.36588 8.36483 5.00042 12.5 5.00042C16.6352 5.00042 20.0006 8.36588 20.0006 12.5C20.0006 13.7212 19.7003 14.9319 19.1354 16.0009C18.919 16.4083 19.0745 16.9124 19.4819 17.1276ZM12.5 0C10.0859 0 7.74214 0.690944 5.72286 1.99618C5.33539 2.24609 5.22513 2.76167 5.47505 3.1481C5.72601 3.53452 6.23949 3.64373 6.62802 3.39591C8.37533 2.26604 10.4083 1.66751 12.5 1.66751C18.4738 1.66751 23.3325 6.52721 23.3325 12.5C23.3325 18.4738 18.4738 23.3335 12.5 23.3335C6.52616 23.3335 1.66646 18.4738 1.66646 12.5C1.66646 10.4282 2.25344 8.41313 3.36546 6.67527C3.61328 6.28675 3.49987 5.77116 3.11135 5.52335C2.72387 5.27553 2.20829 5.38894 1.96152 5.77642C0.678343 7.78309 0 10.11 0 12.5C0 19.3937 5.60631 25 12.5 25C19.3926 25 25 19.3937 25 12.5C25 5.60841 19.3926 0 12.5 0Z" fill="#314CA3"/>
</svg>
