<svg width="25" height="25" viewBox="0 0 25 25" fill="none" xmlns="http://www.w3.org/2000/svg">
<path d="M4.37077 16.6678C4.62216 16.8174 4.83801 17.0121 5.01026 17.2371H8.26542V14.0806L6.72192 13.1236C6.37815 12.9105 6.27225 12.459 6.48537 12.1153C6.69853 11.7716 7.14981 11.6657 7.49372 11.8787L8.99778 12.8112L10.3088 11.9984C7.6939 8.41283 8.29443 3.33221 11.7751 0.464604C6.04166 -1.45611 0.0272321 2.8135 8.61937e-05 8.94559C-0.0140726 12.1976 1.71726 15.0882 4.37077 16.6678Z" fill="#888EA2"/>
<path d="M5.46875 18.7018H12.4017V20.3618H5.46875V18.7018Z" fill="#888EA2"/>
<path d="M9.73047 14.0806V17.237H12.8498C13.0154 17.0185 13.222 16.8312 13.4625 16.6896C14.1281 16.2978 14.7392 15.8199 15.2808 15.273C13.7509 14.9285 12.377 14.1677 11.2845 13.1163C11.2429 13.1434 10.9427 13.3291 9.73047 14.0806Z" fill="#888EA2"/>
<path d="M17.137 0.00231934C13.2968 0.00231934 10.1553 3.1757 10.1553 7.03291C10.1553 10.6611 12.9404 13.6654 16.5116 13.9861C20.6443 14.3553 24.1188 11.0793 24.1188 7.03291C24.1188 3.18317 20.9868 0.00231934 17.137 0.00231934ZM17.8704 10.2072V10.3603C17.8704 10.7647 17.5425 11.0926 17.138 11.0926C16.7336 11.0926 16.4057 10.7647 16.4057 10.3603V10.29C16.0682 10.2308 15.76 10.1046 15.3705 9.84978C15.032 9.62836 14.9372 9.1745 15.1586 8.83601C15.38 8.49747 15.8339 8.40265 16.1723 8.62402C16.5293 8.85759 16.645 8.8758 17.133 8.87243C17.6042 8.86931 17.7919 8.49947 17.8286 8.28147C17.8615 8.08574 17.8245 7.82551 17.4616 7.69725C16.8535 7.48228 16.23 7.23562 15.7883 6.88917C14.7825 6.10028 15.0861 4.29845 16.4057 3.81895V3.71291C16.4057 3.30845 16.7336 2.98055 17.1381 2.98055C17.5425 2.98055 17.8704 3.30845 17.8704 3.71291V3.75353C18.2313 3.85537 18.5219 4.03959 18.7215 4.24259C19.0051 4.53095 19.0012 4.99462 18.7129 5.27824C18.4246 5.56171 17.9613 5.55795 17.6777 5.27008C17.6368 5.2302 17.4112 5.04208 16.9228 5.18918C16.7278 5.24792 16.6754 5.45015 16.664 5.51074C16.6402 5.63719 16.6741 5.72243 16.6923 5.73669C16.9685 5.95337 17.483 6.15125 17.9498 6.31627C19.8799 6.99853 19.6448 9.56572 17.8704 10.2072Z" fill="#888EA2"/>
<path d="M6.63965 22.7052C6.63965 23.9705 7.66904 24.9999 8.93436 24.9999C10.1997 24.9999 11.2291 23.9705 11.2291 22.7052V21.8264H6.63965V22.7052Z" fill="#888EA2"/>
</svg>
