<svg width="25" height="25" viewBox="0 0 25 25" fill="none" xmlns="http://www.w3.org/2000/svg">
<path d="M14.1191 15.3372C18.314 15.3372 21.7269 11.8971 21.7269 7.66863C21.7269 3.44019 18.314 0 14.1191 0C9.92409 0 6.51123 3.44014 6.51123 7.66858C6.51123 11.897 9.92409 15.3372 14.1191 15.3372ZM11.6744 10.0616C11.8957 9.72331 12.3494 9.62835 12.6877 9.84975C13.1806 10.1722 13.3666 10.2019 14.017 10.1973C14.6519 10.1931 15.0203 9.71994 15.0939 9.28202C15.1297 9.06901 15.1434 8.54886 14.4988 8.32097C13.7426 8.05365 12.9688 7.74812 12.4304 7.32586C11.8921 6.9036 11.6455 6.17464 11.7871 5.42358C11.9406 4.60936 12.5085 3.96121 13.2694 3.73205C13.2763 3.73 13.283 3.72835 13.2899 3.7263V3.44882C13.2899 3.04457 13.6176 2.71684 14.0219 2.71684C14.4261 2.71684 14.7539 3.04457 14.7539 3.44882V3.68018C15.251 3.79886 15.5983 4.02631 15.7392 4.13167C16.063 4.37376 16.1293 4.83242 15.8872 5.15625C15.6452 5.48009 15.1865 5.54635 14.8627 5.30421C14.7127 5.19207 14.2981 4.95101 13.6916 5.13376C13.3373 5.24053 13.2454 5.59013 13.2257 5.6947C13.187 5.9002 13.2304 6.09281 13.3339 6.17391C13.707 6.46661 14.3788 6.72578 14.9867 6.94064C16.1075 7.33684 16.7308 8.37529 16.5376 9.5247C16.4428 10.0887 16.159 10.6119 15.7386 10.9981C15.4523 11.2613 15.119 11.4488 14.7539 11.556V11.8883C14.7539 12.2926 14.4261 12.6203 14.0219 12.6203C13.6176 12.6203 13.2899 12.2926 13.2899 11.8883V11.629C12.8166 11.5716 12.4193 11.4236 11.8862 11.0748C11.548 10.8535 11.4531 10.3999 11.6744 10.0616Z" fill="#314CA3"/>
<path d="M2.40101 17.7968H0.731986C0.327734 17.7968 0 18.1245 0 18.5287V24.267C0 24.6713 0.327734 24.999 0.731986 24.999H2.40106V17.7968H2.40101Z" fill="#314CA3"/>
<path d="M24.0383 17.7457C22.6663 16.3737 20.4339 16.3736 19.062 17.7457L16.8693 19.9384L15.9706 20.8371C15.6074 21.2003 15.1147 21.4044 14.601 21.4044H10.2309C9.83619 21.4044 9.49655 21.101 9.47796 20.7068C9.45815 20.2859 9.79354 19.9384 10.2101 19.9384H14.6521C15.5452 19.9384 16.3199 19.3025 16.4734 18.4227C16.5087 18.2207 16.5271 18.0129 16.5271 17.801C16.5271 17.396 16.199 17.0674 15.7941 17.0674H13.3601C12.5647 17.0674 11.8008 16.7065 10.9921 16.3244C10.1438 15.9238 9.26671 15.5094 8.2411 15.4412C7.34407 15.3814 6.445 15.4796 5.56871 15.7327C4.63045 16.0036 3.956 16.8372 3.87421 17.7996C3.87109 17.7993 3.86792 17.7993 3.86475 17.7991V24.9965L16.4757 25C17.3428 25 18.158 24.6623 18.7713 24.0491L24.0381 18.7823C24.3245 18.4961 24.3245 18.0319 24.0383 17.7457Z" fill="#314CA3"/>
</svg>
