<svg width="21" height="23" viewBox="0 0 21 23" fill="none" xmlns="http://www.w3.org/2000/svg">
<path d="M18.3213 5.82081C18.3073 4.27373 17.6835 2.79463 16.5854 1.70478C15.4872 0.614926 14.0035 0.00234022 12.4563 7.33246e-05H3.91982C3.70779 -0.00265567 3.50183 0.0708711 3.33946 0.20726C3.17709 0.343649 3.06912 0.533825 3.03521 0.743146L0.009843 19.718C-0.0090595 19.8437 -0.000670601 19.9719 0.0344386 20.0941C0.0695478 20.2162 0.130553 20.3293 0.213303 20.4257C0.295519 20.5244 0.39825 20.6041 0.514353 20.6591C0.630455 20.7141 0.757143 20.7431 0.885608 20.7442H4.53905L4.34444 21.9738C4.32377 22.1012 4.33125 22.2317 4.36635 22.3559C4.40145 22.4802 4.46332 22.5952 4.54763 22.693C4.63193 22.7908 4.73661 22.8689 4.85433 22.922C4.97205 22.975 5.09995 23.0016 5.22905 22.9999H9.34248C9.55323 23.003 9.75814 22.9307 9.92032 22.7961C10.0825 22.6615 10.1913 22.4734 10.2271 22.2657L11.1117 16.8607H13.8982C15.6423 16.8537 17.3127 16.1566 18.5443 14.9217C19.7759 13.6868 20.4686 12.0145 20.4709 10.2704V10.0227C20.47 9.20231 20.2747 8.39379 19.9011 7.66342C19.5274 6.93304 18.986 6.30159 18.3213 5.82081ZM4.67174 1.76929H12.4563C13.3844 1.77214 14.2841 2.08944 15.0087 2.66941C15.7333 3.24939 16.2399 4.0578 16.4459 4.96274C16.0632 4.87299 15.6713 4.82845 15.2782 4.83005H7.90057C7.68854 4.82732 7.48258 4.90084 7.32021 5.03723C7.15784 5.17362 7.04987 5.3638 7.01596 5.57312L6.49404 8.84618C6.4565 9.08079 6.5137 9.32071 6.65305 9.51315C6.79241 9.70559 7.0025 9.83479 7.23711 9.87233C7.47172 9.90987 7.71164 9.85267 7.90408 9.71331C8.09652 9.57396 8.22572 9.36387 8.26326 9.12925L8.67018 6.58158H15.2959C15.72 6.5838 16.1399 6.66479 16.5344 6.82042C16.3662 8.20523 15.6981 9.48096 14.6555 10.4078C13.613 11.3347 12.2678 11.8489 10.8729 11.8539H6.76827C6.55753 11.8508 6.35261 11.9231 6.19043 12.0577C6.02825 12.1923 5.91947 12.3804 5.88366 12.5881L4.80443 18.975H1.9206L4.67174 1.76929ZM18.7017 10.2704C18.6993 11.5453 18.1931 12.7675 17.2933 13.6707C16.3935 14.5738 15.1731 15.0845 13.8982 15.0915H10.3598C10.149 15.0885 9.94413 15.1607 9.78195 15.2954C9.61977 15.43 9.51098 15.6181 9.47518 15.8258L8.59057 21.2307H6.25519L6.44981 20.0011L7.51134 13.6408H10.8552C12.5066 13.6359 14.1101 13.0849 15.4157 12.0737C16.7214 11.0625 17.6559 9.64778 18.0736 8.05003C18.4842 8.62569 18.7039 9.31564 18.7017 10.0227V10.2704Z" fill="#314CA3"/>
</svg>
