<svg width="22" height="18" viewBox="0 0 22 18" fill="none" xmlns="http://www.w3.org/2000/svg">
<path d="M15.6717 17.49H2.6323C1.93439 17.4893 1.26528 17.2117 0.771787 16.7182C0.278292 16.2247 0.000727972 15.5556 0 14.8577V7.07576C0.000727972 6.37785 0.278292 5.70874 0.771787 5.21525C1.26528 4.72175 1.93439 4.44419 2.6323 4.44346H15.6717C16.3696 4.44419 17.0387 4.72175 17.5322 5.21525C18.0257 5.70874 18.3033 6.37785 18.304 7.07576V14.8577C18.3033 15.5556 18.0257 16.2247 17.5322 16.7182C17.0387 17.2117 16.3696 17.4893 15.6717 17.49ZM2.6323 6.09346C2.37187 6.09375 2.12218 6.19734 1.93803 6.38149C1.75388 6.56564 1.65029 6.81533 1.65 7.07576V14.8577C1.65029 15.1181 1.75388 15.3678 1.93803 15.552C2.12218 15.7361 2.37187 15.8397 2.6323 15.84H15.6717C15.9321 15.8397 16.1818 15.7361 16.366 15.552C16.5501 15.3678 16.6537 15.1181 16.654 14.8577V7.07576C16.6537 6.81533 16.5501 6.56564 16.366 6.38149C16.1818 6.19734 15.9321 6.09375 15.6717 6.09346H2.6323Z" fill="#314CA3"/>
<path d="M19.3688 13.0471H17.479C17.2602 13.0471 17.0503 12.9602 16.8956 12.8055C16.7409 12.6507 16.654 12.4409 16.654 12.2221C16.654 12.0033 16.7409 11.7935 16.8956 11.6387C17.0503 11.484 17.2602 11.3971 17.479 11.3971H19.3688C19.629 11.3965 19.8784 11.2928 20.0624 11.1087C20.2463 10.9246 20.3497 10.675 20.35 10.4148V2.63285C20.3498 2.37251 20.2465 2.12285 20.0625 1.93861C19.8786 1.75437 19.6291 1.65058 19.3688 1.65H6.32939C6.06896 1.65029 5.81928 1.75388 5.63512 1.93803C5.45097 2.12218 5.34738 2.37187 5.34709 2.6323V5.2679C5.34709 5.4867 5.26017 5.69655 5.10546 5.85126C4.95074 6.00598 4.7409 6.0929 4.52209 6.0929C4.30329 6.0929 4.09345 6.00598 3.93873 5.85126C3.78401 5.69655 3.69709 5.4867 3.69709 5.2679V2.63285C3.69768 1.93485 3.97518 1.26559 4.46869 0.771981C4.9622 0.278368 5.63139 0.000728208 6.32939 0H19.3688C20.0666 0.00101931 20.7355 0.278788 21.2288 0.77237C21.7221 1.26595 21.9994 1.93504 22 2.63285V10.4148C21.9993 11.1125 21.7219 11.7815 21.2286 12.2749C20.7353 12.7684 20.0665 13.0461 19.3688 13.0471Z" fill="#314CA3"/>
<path d="M17.479 11.5935H0.825C0.606196 11.5935 0.396354 11.5066 0.241637 11.3519C0.0869194 11.1971 0 10.9873 0 10.7685V7.99759C0 7.77879 0.0869194 7.56894 0.241637 7.41423C0.396354 7.25951 0.606196 7.17259 0.825 7.17259H17.479C17.6978 7.17259 17.9076 7.25951 18.0624 7.41423C18.2171 7.56894 18.304 7.77879 18.304 7.99759V10.7685C18.304 10.9873 18.2171 11.1971 18.0624 11.3519C17.9076 11.5066 17.6978 11.5935 17.479 11.5935ZM1.65 9.94349H16.654V8.82259H1.65V9.94349Z" fill="#314CA3"/>
</svg>
